Coordinates
version=1
nRows=13
nColumns=36
inDegrees=yes

Units are S.I. units (second, meters, Newtons, ...)
If the header above contains a line with 'inDegrees', this indicates whether rotational values are in degrees (yes) or radians (no).

endheader
time	pelvis_tilt	pelvis_list	pelvis_rotation	pelvis_tx	pelvis_ty	pelvis_tz	hip_flexion_r	hip_adduction_r	hip_rotation_r	knee_angle_r	knee_angle_r_beta	ankle_angle_r	subtalar_angle_r	mtp_angle_r	hip_flexion_l	hip_adduction_l	hip_rotation_l	knee_angle_l	knee_angle_l_beta	ankle_angle_l	subtalar_angle_l	mtp_angle_l	lumbar_extension	lumbar_bending	lumbar_rotation	arm_flex_r	arm_add_r	arm_rot_r	elbow_flex_r	pro_sup_r	arm_flex_l	arm_add_l	arm_rot_l	elbow_flex_l	pro_sup_l
      0.00000000	     -5.71230586	     -0.57855675	     -2.30582773	     -0.98150126	      1.23003740	     -0.07542730	     16.74727291	      0.06551169	     -2.29789879	     21.76674396	      0.37990135	      3.01619071	    -11.31095152	     -6.16566540	     14.12090924	     -1.02888190	     -5.38882141	     18.81099221	      0.32831375	      5.27282283	     -7.78054002	     -6.16566540	    -16.48931508	      2.04307103	     -1.24092216	     -9.41764325	     -8.89369012	      0.45564735	    103.46078274	     93.36456242	    -10.91577947	    -11.55470055	      0.77864247	    103.74394692	     94.99607274
      0.00416670	     -6.15812038	     -0.14396816	     -2.13665773	     -0.98205071	      1.23055438	     -0.07564160	     18.61938426	     -0.16096594	     -1.04621762	     24.24288441	      0.42311815	      6.34594853	    -11.44782071	     -6.21020083	     15.96600607	      0.11119100	     -3.82420276	     21.42927785	      0.37401145	      7.25919292	     -8.17732598	     -6.21020083	    -15.79003635	      1.74972467	     -1.89785479	     -9.10101947	     -7.90813693	     -1.57630475	    102.09296550	     93.42215561	    -11.19437892	    -12.89100420	     -0.92688295	    104.03467615	     94.93586289
      0.00833330	     -7.16299263	      0.26723980	     -2.66030450	     -0.98063898	      1.22918653	     -0.07485318	     19.49571341	     -0.38559243	     -1.34627886	     23.89706764	      0.41708251	      6.39846146	    -12.12123450	     -6.19815326	     16.76812060	      0.36025043	     -3.43145354	     21.25141666	      0.37090719	      7.92193304	     -8.83790867	     -6.19815326	    -14.26226669	      0.95694424	     -1.86522704	     -9.66540773	     -7.96444654	     -1.64269575	    101.60032519	     93.44139774	    -11.40006411	    -14.14253371	     -1.34202750	    103.42029181	     95.01507011
      0.01250000	     -7.16438224	      0.25638836	     -2.58006923	     -0.98053130	      1.23104835	     -0.07410677	     19.41034419	     -0.40813349	     -1.67518398	     23.80129480	      0.41541096	      6.34844820	    -12.04471910	     -6.31355632	     16.62067009	      0.46303023	     -2.55914180	     21.08990167	      0.36808822	      8.05671749	    -10.11488914	     -6.31355632	    -14.25737810	      0.92890129	     -1.95792260	    -10.22507372	     -7.91203797	     -1.62516647	    102.06139752	     92.99548417	    -11.50158737	    -14.62864346	     -1.31624039	    103.92061968	     94.25356415
      0.01666670	     -7.40378455	      0.28629667	     -2.46677986	     -0.98222683	      1.23258465	     -0.07478954	     19.59480141	     -0.44953056	     -1.85843823	     23.46295990	      0.40950590	      6.10438660	    -11.55016679	     -6.65316006	     16.68212969	      0.70579499	     -1.89529839	     20.71358418	      0.36152024	      7.86807936	    -10.92272042	     -6.65316006	    -14.08653861	      1.05830945	     -1.71642799	    -10.36642272	     -7.87675487	     -1.85730655	    101.91735442	     95.18154814	    -11.53833813	    -14.15170272	     -1.31487067	    103.66602474	     95.65391994
      0.02083330	     -7.41008671	      0.25540993	     -2.36701107	     -0.98065902	      1.23007086	     -0.07329656	     19.56389380	     -0.30286553	     -1.66557306	     23.36312409	      0.40776344	      6.08544583	    -11.37019660	     -6.74083644	     16.75916237	      0.73400486	     -1.46091431	     20.83743767	      0.36368190	      8.20533248	    -11.06469207	     -6.74083644	    -14.15503099	      1.12783312	     -1.75163982	    -10.57985105	     -7.82964982	     -1.79052527	    102.31765552	     93.79219425	    -11.73290119	    -14.01044218	     -1.23564228	    103.85654461	     94.40248908
      0.02500000	     -7.54016693	      0.20089016	     -2.27236918	     -0.97948497	      1.23018895	     -0.07274042	     19.68067935	     -0.21947648	     -1.64981263	     23.33346563	      0.40724580	      5.87185699	    -11.53345110	     -6.76354562	     16.79586744	      0.71329973	     -1.12546221	     20.75697201	      0.36227750	      8.21437213	    -11.19654867	     -6.76354562	    -13.94204329	      1.25905021	     -1.59940093	    -10.65428785	     -7.72259321	     -2.13262301	    102.26407314	     93.53716491	    -12.12311907	    -13.65194043	     -1.34808258	    103.90663132	     94.39541570
      0.02916670	     -7.54663968	      0.06279817	     -2.16156075	     -0.98198695	      1.22973363	     -0.07285892	     19.73900959	     -0.03995041	     -1.63390298	     23.39553830	      0.40832917	      5.84638019	    -11.96202442	     -6.79814580	     16.96287784	      0.59660438	     -0.81366595	     20.91223291	      0.36498732	      8.37304602	    -11.42467166	     -6.79814580	    -13.94458219	      1.41849072	     -1.43196112	    -10.53862888	     -7.71921096	     -2.54869860	    102.49201326	     92.97297231	    -12.47108912	    -12.96534445	     -1.69524859	    104.15874339	     94.21948805
      0.03333330	     -8.16622281	      0.07179893	     -2.08921486	     -0.97991120	      1.22745302	     -0.07175870	     20.50540468	      0.02104664	     -1.62125170	     23.66484952	      0.41302954	      5.99866574	    -12.33345398	     -6.82588078	     17.72299690	      0.52951033	     -0.68508013	     21.17721326	      0.36961210	      8.50305545	    -11.61341347	     -6.82588078	    -12.74906881	      1.39725168	     -1.30295920	    -10.47797297	     -7.80709927	     -2.62303980	    101.72840197	     92.18120257	    -12.77453439	    -12.67860179	     -1.58156493	    103.44578245	     93.60872558
      0.03750000	     -7.82732501	     -0.03607696	     -2.00086263	     -0.98141575	      1.22954413	     -0.07283122	     20.10034892	      0.12254149	     -1.71168069	     23.63031035	      0.41242672	      5.89059366	    -12.65125614	     -6.90626094	     17.58314487	      0.44673357	     -0.53574625	     21.43487811	      0.37410920	      8.58781869	    -11.43487846	     -6.90626094	    -13.63517978	      1.50407547	     -1.33047795	    -10.06307753	     -8.01738773	     -2.62685188	    102.20577636	     90.70294432	    -12.75602296	    -12.59641728	     -1.72977711	    104.12466552	     92.40130093
      0.04166670	     -7.85686381	     -0.01350640	     -1.87262772	     -0.98033158	      1.22838885	     -0.07206711	     20.06193842	      0.14484987	     -1.62155499	     23.58868444	      0.41170021	      5.95415727	    -12.92229230	     -6.94524556	     17.69710306	      0.48220138	     -0.40704418	     21.55079568	      0.37613234	      8.61187746	    -11.36357235	     -6.94524556	    -13.53531146	      1.46262131	     -1.41980495	     -9.81750638	     -8.17580069	     -2.54688097	    101.92470096	     90.22635752	    -12.85621523	    -12.49016278	     -1.94900571	    103.98859052	     92.38268728
      0.04583330	     -8.01455311	      0.04942313	     -1.82736103	     -0.98141341	      1.22905696	     -0.07108012	     20.23910517	      0.17283881	     -1.43244908	     23.62488307	      0.41233200	      5.95780518	    -12.97680825	     -7.02778766	     17.94965106	      0.54763118	     -0.20627899	     21.67679773	      0.37833149	      8.50689826	    -11.33208010	     -7.02778766	    -13.34627818	      1.36349750	     -1.45307364	     -9.56357231	     -8.28669175	     -2.29110684	    101.62483110	     88.37978424	    -12.88669605	    -12.60119419	     -1.90553671	    103.83918048	     90.78003737
      0.05000000	     -8.11296175	      0.03270918	     -1.81802738	     -0.98348543	      1.22853855	     -0.07242689	     20.41703123	      0.18563561	     -1.44115182	     23.65553158	      0.41286691	      5.79638963	    -13.28528324	     -7.04430510	     18.17568126	      0.54006319	     -0.10944287	     21.67118978	      0.37823361	      8.46992453	    -11.30421941	     -7.04430510	    -13.33226623	      1.40988590	     -1.47426472	     -8.97692945	     -8.61932415	     -2.15753157	    101.40466685	     88.29108553	    -12.69928715	    -12.75298382	     -1.89973528	    103.73088553	     91.06532937
